# xmcd CD database file
#
# Track frame offsets:
#	150
#	12777
#	25227
#	35927
#	47350
#	59162
#	69955
#	82545
#	94950
#	108260
#	121792
#	134527
#	147265
#	161087
#	172625
#	185842
#
# Disc length: 2624 seconds
#
# Revision: 3
# Processed by: cddbd v1.5.2PL0 Copyright (c) Steve Scherf et al.
# Submitted via: CDex 1.51
#
DISCID=d10a3e10
DTITLE=Sonny Boy Wliiamson - Clownin' With The World (w. Willie Love)
DYEAR=1900
DGENRE=
TTITLE0=She's Crazy (SBW)
TTITLE1=309 (SBW)
TTITLE2=Sonny's Rhythm (SBW)
TTITLE3=City Of New Orleans (SBW)
TTITLE4=Keep It To Yourself (SBW)
TTITLE5=Shuckin' Mama (SBW)
TTITLE6=I'm Not Beggin' Nobody (SBW)
TTITLE7=Clownin' With The World (SBW)
TTITLE8=Take It Easy Baby (WL)
TTITLE9=Little Car Blues (WL)
TTITLE10=V-8 Ford (WL)
TTITLE11=Nelson Street Blues (WL)
TTITLE12=Falling Rain (WL)
TTITLE13=Feed My Body To The Fishes (WL)
TTITLE14=Worried Blues (WL)
TTITLE15=Lonesome World Blues (WL)
EXTD=
EXTT0=
EXTT1=
EXTT2=
EXTT3=
EXTT4=
EXTT5=
EXTT6=
EXTT7=
EXTT8=
EXTT9=
EXTT10=
EXTT11=
EXTT12=
EXTT13=
EXTT14=
EXTT15=
PLAYORDER=
